<?xml version="1.0" encoding="UTF-8"?>
<svg version="1.1" xmlns="http://www.w3.org/2000/svg" width="500" height="500">
<path d="M0 0 C1.875 1.1875 1.875 1.1875 3 3 C3.1875 5.6875 3.1875 5.6875 3 8 C3.66 8 4.32 8 5 8 C7.18718613 13.07862873 9.3310924 18.17347238 11.44921875 23.28125 C11.77864975 24.07497513 12.10808075 24.86870026 12.44749451 25.68647766 C13.52805059 28.29075561 14.60783941 30.89535069 15.6875 33.5 C16.06171082 34.40237396 16.43592163 35.30474792 16.82147217 36.23446655 C22.61741539 50.21301714 28.37580134 64.20661163 34.10684204 78.21188354 C37.79819017 87.2312847 41.50855462 96.24212435 45.265625 105.234375 C45.61289642 106.06575485 45.96016785 106.8971347 46.31796265 107.75370789 C47.97684396 111.72311636 49.6388496 115.69118194 51.30517578 119.6574707 C51.89879903 121.07501747 52.49238817 122.49257853 53.0859375 123.91015625 C53.35287415 124.54270325 53.61981079 125.17525024 53.89483643 125.82696533 C58 135.64637325 58 135.64637325 58 141 C58.66 141 59.32 141 60 141 C67.07315864 153.70958194 68.78539587 165.25417876 68.6875 179.5625 C68.68613037 180.35137604 68.68476074 181.14025208 68.68334961 181.95303345 C68.67038407 184.22114751 68.62977333 186.48646689 68.57421875 188.75390625 C68.56428391 189.44063416 68.55434906 190.12736206 68.54411316 190.8348999 C68.43423153 193.6026296 68.22771273 195.62487157 66.77661133 198.01538086 C65 199 65 199 62.6328125 198.97241211 C59.25157416 197.7235738 57.43880788 195.97292737 54.875 193.44140625 C54.40562012 192.97822495 53.93624023 192.51504364 53.45263672 192.03782654 C52.46277252 191.05505014 51.47799497 190.06712714 50.49804688 189.07446289 C49.01991133 187.58259629 47.51963592 186.11610954 46.015625 184.65039062 C45.05063003 183.68634838 44.08704378 182.72089359 43.125 181.75390625 C42.26132812 180.89095947 41.39765625 180.0280127 40.5078125 179.13891602 C34.95570578 172.79887922 32.09533961 164.11619603 28.953125 156.40234375 C28.58477539 155.50712509 28.21642578 154.61190643 27.83691406 153.68955994 C26.63788587 150.77358617 25.44400357 147.85553432 24.25 144.9375 C23.40505905 142.88084269 22.55967459 140.82436753 21.71386719 138.76806641 C19.98244459 134.55830414 18.25247963 130.34794752 16.5234375 126.13720703 C12.78609104 117.04132249 9.01883439 107.95787115 5.25 98.875 C4.5496187 97.18596341 3.84926056 95.49691721 3.14892578 93.80786133 C-0.55397791 84.8797226 -4.26647354 75.95564332 -7.99084473 67.03643799 C-9.57136992 63.25108907 -11.15015387 59.46504184 -12.72363281 55.67675781 C-13.17204529 54.59723846 -13.17204529 54.59723846 -13.6295166 53.49591064 C-14.22132414 52.07110349 -14.81304093 50.64625865 -15.40466309 49.22137451 C-17.11211487 45.11509763 -18.83845751 41.01745604 -20.58181763 36.92630005 C-21.39315849 35.01791899 -22.19809421 33.1069822 -23.00048828 31.19482422 C-23.96888642 28.88939967 -24.94827413 26.58854647 -25.94091797 24.29345703 C-26.36260254 23.28138184 -26.78428711 22.26930664 -27.21875 21.2265625 C-27.58935547 20.35596191 -27.95996094 19.48536133 -28.34179688 18.58837891 C-29.1595927 15.37240288 -28.86933955 13.18562226 -28 10 C-25.62890625 8.2421875 -25.62890625 8.2421875 -22.5625 6.875 C-21.47839844 6.38515625 -20.39429688 5.8953125 -19.27734375 5.390625 C-18.19582031 4.93171875 -17.11429688 4.4728125 -16 4 C-15.07316406 3.58234375 -14.14632812 3.1646875 -13.19140625 2.734375 C-8.76167755 0.81954555 -4.90496248 -0.83743262 0 0 Z " fill="#090505" transform="translate(218,118)"/>
<path d="M0 0 C2.62497518 2.62497518 3.61059195 5.63071095 4.94921875 9.0234375 C5.23854279 9.7440184 5.52786682 10.4645993 5.82595825 11.20701599 C6.45410871 12.77246115 7.0800346 14.33880033 7.70401001 15.90591431 C9.38263363 20.12015707 11.07870991 24.32736956 12.7734375 28.53515625 C13.29714684 29.83700111 13.29714684 29.83700111 13.83143616 31.16514587 C17.42202144 40.07679419 21.10700434 48.94813916 24.8125 57.8125 C25.43994792 59.31510145 26.06738939 60.81770559 26.69482422 62.3203125 C28.99062099 67.81557637 31.29073135 73.30902865 33.59375 78.80126953 C34.56349056 81.11418914 35.53253289 83.42740168 36.50073242 85.7409668 C37.34262618 87.75239248 38.18637715 89.7630424 39.0324707 91.77270508 C44 103.64133764 44 103.64133764 44 109 C44.66 109 45.32 109 46 109 C53.07315864 121.70958194 54.78539587 133.25417876 54.6875 147.5625 C54.68613037 148.35137604 54.68476074 149.14025208 54.68334961 149.95303345 C54.67038407 152.22114751 54.62977333 154.48646689 54.57421875 156.75390625 C54.56428391 157.44063416 54.55434906 158.12736206 54.54411316 158.8348999 C54.43423153 161.6026296 54.22771273 163.62487157 52.77661133 166.01538086 C51 167 51 167 48.6328125 166.97241211 C45.25157416 165.7235738 43.43880788 163.97292737 40.875 161.44140625 C40.40562012 160.97822495 39.93624023 160.51504364 39.45263672 160.03782654 C38.46277252 159.05505014 37.47799497 158.06712714 36.49804688 157.07446289 C35.01991133 155.58259629 33.51963592 154.11610954 32.015625 152.65039062 C31.05063003 151.68634838 30.08704378 150.72089359 29.125 149.75390625 C28.26132812 148.89095947 27.39765625 148.0280127 26.5078125 147.13891602 C20.95569493 140.79886683 18.09537203 132.11619839 14.953125 124.40234375 C14.58441284 123.50630936 14.21570068 122.61027496 13.83581543 121.68708801 C12.63707364 118.7719702 11.44351678 115.85476045 10.25 112.9375 C8.98375769 109.85385667 7.71627821 106.77072357 6.4487915 103.68759155 C5.58419752 101.58412181 4.7200648 99.48046241 3.85638428 97.37661743 C0.99417243 90.40671496 -1.88605987 83.44454578 -4.78125 76.48828125 C-5.16114075 75.57501572 -5.54103149 74.66175018 -5.93243408 73.72080994 C-7.38396409 70.23186241 -8.83563943 66.74298083 -10.29089355 63.25558472 C-12.22704588 58.61466469 -14.14729961 53.9677705 -16.0480957 49.31225586 C-17.0528607 46.87159689 -18.08050121 44.44117563 -19.10742188 42.00976562 C-19.77568369 40.38710724 -20.44303246 38.76407247 -21.109375 37.140625 C-21.43021057 36.39617126 -21.75104614 35.65171753 -22.081604 34.88470459 C-23.44378272 31.50984289 -24.15315708 29.56242783 -23.18066406 25.99121094 C-22.79104492 25.33411133 -22.40142578 24.67701172 -22 24 C-20.01582656 26.97626016 -18.75698276 29.75735605 -17.3828125 33.0546875 C-17.12999512 33.65895569 -16.87717773 34.26322388 -16.61669922 34.88580322 C-15.78297599 36.8809014 -14.95390144 38.87789421 -14.125 40.875 C-13.53781307 42.28378121 -12.95040746 43.69247129 -12.36279297 45.10107422 C-10.85733986 48.71247103 -9.3560465 52.32558149 -7.85595703 55.93920898 C-7.05746548 57.86164686 -6.25761881 59.78351233 -5.45703125 61.70507812 C-0.60341104 73.35767036 4.20824032 85.0261486 8.9453125 96.7265625 C9.28207001 97.55829987 9.61882751 98.39003723 9.96578979 99.24697876 C11.62195016 103.33939551 13.27546264 107.43285932 14.92529297 111.52783203 C16.36173621 115.09117132 17.81090748 118.64908032 19.2689209 122.2036438 C19.92232251 123.80913632 20.55853113 125.42160124 21.19238281 127.03491211 C22.2460511 129.72086718 22.2460511 129.72086718 24 133 C27.62176584 134.22267708 27.62176584 134.22267708 31 134 C31.33 132.68 31.66 131.36 32 130 C33.98 130.33 35.96 130.66 38 131 C38.66 129.68 39.32 128.36 40 127 C41.98 127.495 41.98 127.495 44 128 C45.76548613 126.37591253 45.76548613 126.37591253 47 124 C46.33228837 121.11732225 46.33228837 121.11732225 44.8125 118.1875 C42.81277304 113.79667861 41.02559276 109.71772671 40 105 C40.33 104.34 40.66 103.68 41 103 C39.515 102.505 39.515 102.505 38 102 C36.79589844 99.7956543 36.79589844 99.7956543 35.609375 96.82421875 C35.15449707 95.70354004 34.69961914 94.58286133 34.23095703 93.42822266 C33.73725364 92.18133532 33.24360287 90.93442714 32.75 89.6875 C32.23026133 88.39841809 31.70923747 87.1098537 31.18701172 85.82177734 C30.35163676 83.76082866 29.51717799 81.69955107 28.68661499 79.63665771 C25.24724987 71.09901171 21.68029825 62.61483771 18.125 54.125 C16.02407418 49.10618943 13.9298373 44.08476419 11.85217285 39.05627441 C11.27922699 37.6737686 10.70324676 36.29251679 10.12438965 34.91247559 C9.28101449 32.90045564 8.44807891 30.88438911 7.6171875 28.8671875 C7.13620605 27.7107373 6.65522461 26.55428711 6.15966797 25.36279297 C4.96059146 21.88572354 4.42102702 18.64575541 4 15 C3.29935506 12.187339 2.49983654 10.58592507 1 8 C-2.08369887 6.94250443 -2.08369887 6.94250443 -5 7 C-4.67 6.34 -4.34 5.68 -4 5 C-3.34 5 -2.68 5 -2 5 C-1.855625 4.360625 -1.71125 3.72125 -1.5625 3.0625 C-1 1 -1 1 0 0 Z " fill="#110603" transform="translate(232,150)"/>
<path d="M0 0 C1.32 0 2.64 0 4 0 C6.09230769 4.43076923 6.09230769 4.43076923 5.625 7.3125 C5.315625 8.1478125 5.315625 8.1478125 5 9 C4.67 8.01 4.34 7.02 4 6 C3.01 6.33 2.02 6.66 1 7 C0.34 6.34 -0.32 5.68 -1 5 C-0.24678794 8.48988256 1.01789423 11.63887007 2.375 14.9375 C4.43866036 19.99778718 6.41591061 25.08304727 8.31640625 30.20703125 C13.50898801 44.18492146 18.99541821 57.98423295 24.875 71.6875 C25.19346893 72.43189331 25.51193787 73.17628662 25.84005737 73.9432373 C29.33011886 82.08509839 32.93461048 90.12427391 37 98 C35.68 92.72 34.36 87.44 33 82 C38.88235294 83.17647059 38.88235294 83.17647059 41 86 C41.67349161 87.66392045 42.3409159 89.33032028 43 91 C43.99 91.495 43.99 91.495 45 92 C45 93.98 45 95.96 45 98 C45.66 98.33 46.32 98.66 47 99 C47.78125 100.85546875 47.78125 100.85546875 48.5 103.1875 C48.75394531 103.99445313 49.00789063 104.80140625 49.26953125 105.6328125 C49.63111328 106.80457031 49.63111328 106.80457031 50 108 C50.391875 109.175625 50.78375 110.35125 51.1875 111.5625 C51.455625 112.366875 51.72375 113.17125 52 114 C51.01 114.495 51.01 114.495 50 115 C49.34 115.99 48.68 116.98 48 118 C46.02 117.505 46.02 117.505 44 117 C43.34 118.32 42.68 119.64 42 121 C39.03 120.01 39.03 120.01 36 119 C35.67 120.65 35.34 122.3 35 124 C32.03 123.01 32.03 123.01 29 122 C28.67 122.66 28.34 123.32 28 124 C25.80643835 117.258206 24.44550009 111.99524958 26 105 C26.33 104.67 26.66 104.34 27 104 C17.75495329 78.66896294 7.95980789 53.75492349 -3.26660156 29.23339844 C-3.63108398 28.43063477 -3.99556641 27.62787109 -4.37109375 26.80078125 C-4.8360022 25.78818237 -4.8360022 25.78818237 -5.31030273 24.75512695 C-6.2456058 22.37498757 -6.4440016 20.51600906 -6 18 C-5.34 17.01 -4.68 16.02 -4 15 C-4.66 15 -5.32 15 -6 15 C-6 15.66 -6 16.32 -6 17 C-6.598125 16.814375 -7.19625 16.62875 -7.8125 16.4375 C-10.16408762 15.77906313 -10.16408762 15.77906313 -13 17 C-16.44216672 14.3401439 -16.99504674 11.09711714 -18 7 C-17.360625 6.896875 -16.72125 6.79375 -16.0625 6.6875 C-15.381875 6.460625 -14.70125 6.23375 -14 6 C-13.67 5.01 -13.34 4.02 -13 3 C-9.00662649 0.76840892 -5.49029101 0.91364825 -1 1 C-0.67 0.67 -0.34 0.34 0 0 Z " fill="#E98E44" transform="translate(228,161)"/>
<path d="M0 0 C2.62497518 2.62497518 3.61059195 5.63071095 4.94921875 9.0234375 C5.23854279 9.7440184 5.52786682 10.4645993 5.82595825 11.20701599 C6.45410871 12.77246115 7.0800346 14.33880033 7.70401001 15.90591431 C9.38263363 20.12015707 11.07870991 24.32736956 12.7734375 28.53515625 C13.29714684 29.83700111 13.29714684 29.83700111 13.83143616 31.16514587 C17.42202144 40.07679419 21.10700434 48.94813916 24.8125 57.8125 C25.43994792 59.31510145 26.06738939 60.81770559 26.69482422 62.3203125 C28.99062099 67.81557637 31.29073135 73.30902865 33.59375 78.80126953 C34.56349056 81.11418914 35.53253289 83.42740168 36.50073242 85.7409668 C37.34262618 87.75239248 38.18637715 89.7630424 39.0324707 91.77270508 C44 103.64133764 44 103.64133764 44 109 C44.66 109 45.32 109 46 109 C53.07315864 121.70958194 54.78539587 133.25417876 54.6875 147.5625 C54.68613037 148.35137604 54.68476074 149.14025208 54.68334961 149.95303345 C54.67038407 152.22114751 54.62977333 154.48646689 54.57421875 156.75390625 C54.56428391 157.44063416 54.55434906 158.12736206 54.54411316 158.8348999 C54.43423153 161.6026296 54.22771273 163.62487157 52.77661133 166.01538086 C51 167 51 167 48.6027832 166.95336914 C45.37055809 165.76944277 43.75358174 164.20946152 41.35546875 161.74609375 C40.51435547 160.89208984 39.67324219 160.03808594 38.80664062 159.15820312 C37.94232422 158.26037109 37.07800781 157.36253906 36.1875 156.4375 C35.30384766 155.53580078 34.42019531 154.63410156 33.50976562 153.70507812 C31.33057938 151.47877434 29.16127083 149.24367741 27 147 C27.33 146.01 27.66 145.02 28 144 C32.99857711 144.44588247 35.6914235 148.67509501 38.7578125 152.2265625 C40.29511177 153.95978055 40.29511177 153.95978055 43 156 C44.98 155.67 46.96 155.34 49 155 C49.33 146.75 49.66 138.5 50 130 C49.34 130 48.68 130 48 130 C47.67 131.32 47.34 132.64 47 134 C45.02 133.01 43.04 132.02 41 131 C41 130.67 41 130.34 41 130 C42.65 130 44.3 130 46 130 C46 129.236875 46 128.47375 46 127.6875 C46 125.79166667 46 123.89583333 46 122 C45.42322502 120.39846946 44.7914273 118.81634738 44.125 117.25 C42.45842733 113.1932893 40.98031649 109.2777447 40 105 C40.33 104.34 40.66 103.68 41 103 C40.01 102.67 39.02 102.34 38 102 C36.79589844 99.7956543 36.79589844 99.7956543 35.609375 96.82421875 C35.15449707 95.70354004 34.69961914 94.58286133 34.23095703 93.42822266 C33.73725364 92.18133532 33.24360287 90.93442714 32.75 89.6875 C32.23026133 88.39841809 31.70923747 87.1098537 31.18701172 85.82177734 C30.35163676 83.76082866 29.51717799 81.69955107 28.68661499 79.63665771 C25.24724987 71.09901171 21.68029825 62.61483771 18.125 54.125 C16.02407418 49.10618943 13.9298373 44.08476419 11.85217285 39.05627441 C11.27922699 37.6737686 10.70324676 36.29251679 10.12438965 34.91247559 C9.28101449 32.90045564 8.44807891 30.88438911 7.6171875 28.8671875 C7.13620605 27.7107373 6.65522461 26.55428711 6.15966797 25.36279297 C4.96059146 21.88572354 4.42102702 18.64575541 4 15 C3.29935506 12.187339 2.49983654 10.58592507 1 8 C-2.08369887 6.94250443 -2.08369887 6.94250443 -5 7 C-4.67 6.34 -4.34 5.68 -4 5 C-3.34 5 -2.68 5 -2 5 C-1.7834375 4.0409375 -1.7834375 4.0409375 -1.5625 3.0625 C-1 1 -1 1 0 0 Z " fill="#090403" transform="translate(232,150)"/>
<path d="M0 0 C2.29488252 5.47782478 4.58629392 10.95709172 6.875 16.4375 C7.38604279 17.66108719 7.38604279 17.66108719 7.90740967 18.90939331 C12.62915709 30.22280034 17.28747517 41.55574239 21.76513672 52.96850586 C23.95730927 58.52578642 26.33246051 63.96096174 28.83105469 69.38696289 C30.49033183 73.09607802 31.92292361 76.87074796 33.3125 80.6875 C33.57611328 81.40099609 33.83972656 82.11449219 34.11132812 82.84960938 C34.74454772 84.56505883 35.37284372 86.28232457 36 88 C35.01 88.495 35.01 88.495 34 89 C33.67 88.01 33.34 87.02 33 86 C32.01 86 31.02 86 30 86 C30.30035156 87.04800781 30.60070312 88.09601563 30.91015625 89.17578125 C31.29471465 90.55456379 31.67880489 91.93347697 32.0625 93.3125 C32.26166016 94.00279297 32.46082031 94.69308594 32.66601562 95.40429688 C34.11328125 100.66015625 34.11328125 100.66015625 33 104 C20.83246846 78.49770279 9.58705858 52.26928442 0.38208008 25.54248047 C-1.17648328 21.04522294 -2.95915944 16.95383073 -5.33691406 12.82202148 C-6.1723103 10.52652734 -5.78094501 9.27169758 -5 7 C-4.01 7.66 -3.02 8.32 -2 9 C-1.34 9 -0.68 9 0 9 C0.33 9.66 0.66 10.32 1 11 C0.67 8.36 0.34 5.72 0 3 C-0.9075 3.37125 -1.815 3.7425 -2.75 4.125 C-6 5 -6 5 -8.375 4.125 C-8.91125 3.75375 -9.4475 3.3825 -10 3 C-8.70990357 2.49596232 -7.41786211 1.99690074 -6.125 1.5 C-5.04605469 1.08234375 -5.04605469 1.08234375 -3.9453125 0.65625 C-2 0 -2 0 0 0 Z " fill="#E48D47" transform="translate(232,158)"/>
<path d="M0 0 C0.33 0.66 0.66 1.32 1 2 C0.01 2.33 -0.98 2.66 -2 3 C-1.34 5.97 -0.68 8.94 0 12 C0.928125 11.79375 1.85625 11.5875 2.8125 11.375 C6 11 6 11 9 13 C9 12.34 9 11.68 9 11 C9.66 11 10.32 11 11 11 C10.71898437 12.05316406 10.43796875 13.10632813 10.1484375 14.19140625 C9.42454847 20.16153077 12.18037036 24.85917818 14.73773193 30.11114502 C16.28150264 33.28884681 17.75568223 36.49865675 19.234375 39.70703125 C19.54506927 40.37816956 19.85576355 41.04930786 20.1758728 41.74078369 C23.70182469 49.41842265 26.81085324 57.25392494 29.875 65.125 C30.14687134 65.82303741 30.41874268 66.52107483 30.69885254 67.24026489 C32.00637181 70.60442548 33.30612509 73.97146666 34.59765625 77.34179688 C35.48128798 79.64686962 36.36877204 81.95047283 37.26171875 84.25195312 C38.31028209 86.9556719 39.3461444 89.66373227 40.375 92.375 C40.66745605 93.1292627 40.95991211 93.88352539 41.26123047 94.66064453 C43.11637476 99.65087572 43.11637476 99.65087572 42 103 C41.03667271 107.33497278 41.06957346 110.65800946 42 115 C39.20015129 112.20015129 38.08067056 108.79784169 36.5859375 105.1953125 C36.25260406 104.40212616 35.91927063 103.60893982 35.57583618 102.79171753 C34.86580187 101.09957621 34.15813793 99.40643865 33.45263672 97.71240234 C32.40435773 95.19548782 31.34942191 92.6814614 30.29296875 90.16796875 C26.82978802 81.90815065 23.43512221 73.62466185 20.12890625 65.30078125 C17.12500926 57.74073136 14.02697549 50.2237883 10.87890625 42.72265625 C10.44368652 41.68490051 10.0084668 40.64714478 9.56005859 39.57794189 C7.77004832 35.31280168 5.97827836 31.04842151 4.1809082 26.78637695 C2.84694195 23.62102125 1.51874574 20.45329535 0.19140625 17.28515625 C-0.21581161 16.32376236 -0.62302948 15.36236847 -1.04258728 14.37184143 C-1.41710526 13.47577682 -1.79162323 12.57971222 -2.17749023 11.65649414 C-2.50643784 10.87520645 -2.83538544 10.09391876 -3.17430115 9.28895569 C-4.04439142 6.87694061 -4.55904692 4.52284136 -5 2 C-3.35 1.34 -1.7 0.68 0 0 Z " fill="#DA8B4B" transform="translate(213,165)"/>
<path d="M0 0 C0.33 0.99 0.66 1.98 1 3 C1.66 3 2.32 3 3 3 C3 4.32 3 5.64 3 7 C3.99 7.66 4.98 8.32 6 9 C6.1875 12.125 6.1875 12.125 6 15 C-1.75448452 19.19885683 -9.66885283 22.17893432 -18 25 C-19.03513247 22.9237343 -20.05266211 20.83868521 -21.0625 18.75 C-21.63097656 17.58984375 -22.19945312 16.4296875 -22.78515625 15.234375 C-24.02653836 11.92934481 -24.32137376 11.12360597 -23 8 C-21.31347656 6.81152344 -21.31347656 6.81152344 -19.140625 5.859375 C-18.35429687 5.51132813 -17.56796875 5.16328125 -16.7578125 4.8046875 C-15.93023437 4.45664063 -15.10265625 4.10859375 -14.25 3.75 C-13.43789062 3.38648437 -12.62578125 3.02296875 -11.7890625 2.6484375 C-4.42900329 -0.54012235 -4.42900329 -0.54012235 0 0 Z " fill="#E33065" transform="translate(217,122)"/>
<path d="M0 0 C1.32 0 2.64 0 4 0 C6.09230769 4.43076923 6.09230769 4.43076923 5.625 7.3125 C5.315625 8.1478125 5.315625 8.1478125 5 9 C4.67 8.01 4.34 7.02 4 6 C3.01 6.33 2.02 6.66 1 7 C0.34 6.34 -0.32 5.68 -1 5 C-0.35615396 8.04114515 0.70694485 10.49322145 2.125 13.25 C4.30645705 17.9817216 4.09855306 20.96496512 3 26 C3.66 26 4.32 26 5 26 C5 27.65 5 29.3 5 31 C5.66 31 6.32 31 7 31 C6.67 31.99 6.34 32.98 6 34 C3.525 34.495 3.525 34.495 1 35 C1 33.35 1 31.7 1 30 C0.401875 29.95875 -0.19625 29.9175 -0.8125 29.875 C-3 29 -3 29 -4.75 26.25 C-5.95413148 23.11925814 -6.44478322 21.29139581 -6 18 C-5.34 17.01 -4.68 16.02 -4 15 C-4.66 15 -5.32 15 -6 15 C-6 15.66 -6 16.32 -6 17 C-6.598125 16.814375 -7.19625 16.62875 -7.8125 16.4375 C-10.16408762 15.77906313 -10.16408762 15.77906313 -13 17 C-16.44216672 14.3401439 -16.99504674 11.09711714 -18 7 C-17.360625 6.896875 -16.72125 6.79375 -16.0625 6.6875 C-15.381875 6.460625 -14.70125 6.23375 -14 6 C-13.67 5.01 -13.34 4.02 -13 3 C-9.00662649 0.76840892 -5.49029101 0.91364825 -1 1 C-0.67 0.67 -0.34 0.34 0 0 Z " fill="#ED8F42" transform="translate(228,161)"/>
<path d="M0 0 C0.83764268 1.95649397 1.66999059 3.91525556 2.5 5.875 C2.9640625 6.96554688 3.428125 8.05609375 3.90625 9.1796875 C5 12 5 12 5 14 C1.37732706 15.5056651 -2.24850549 17.00356546 -5.875 18.5 C-6.90753906 18.92925781 -7.94007813 19.35851562 -9.00390625 19.80078125 C-10.48310547 20.40986328 -10.48310547 20.40986328 -11.9921875 21.03125 C-12.90339355 21.40830078 -13.81459961 21.78535156 -14.75341797 22.17382812 C-17 23 -17 23 -19 23 C-19.86846831 21.25705322 -20.71930627 19.50531337 -21.5625 17.75 C-22.03816406 16.77546875 -22.51382813 15.8009375 -23.00390625 14.796875 C-24.07970864 11.77619065 -24.20889024 10.89038597 -23 8 C-21.20581055 6.81152344 -21.20581055 6.81152344 -18.88671875 5.859375 C-18.05076172 5.51132813 -17.21480469 5.16328125 -16.35351562 4.8046875 C-15.47373047 4.45664063 -14.59394531 4.10859375 -13.6875 3.75 C-12.81931641 3.38648438 -11.95113281 3.02296875 -11.05664062 2.6484375 C-7.03729942 1.00738645 -4.41716792 0 0 0 Z " fill="#8E8C8D" transform="translate(225,141)"/>
<path d="M0 0 C0.66 0 1.32 0 2 0 C2 8.25 2 16.5 2 25 C-2 27 -2 27 -4.02050781 26.82958984 C-6.42955797 25.81997558 -7.82046982 24.56765481 -9.671875 22.7265625 C-10.33574219 22.0665625 -10.99960937 21.4065625 -11.68359375 20.7265625 C-12.36550781 20.03304688 -13.04742187 19.33953125 -13.75 18.625 C-14.44738281 17.93921875 -15.14476562 17.2534375 -15.86328125 16.546875 C-16.52199219 15.88429688 -17.18070312 15.22171875 -17.859375 14.5390625 C-18.46233398 13.93271973 -19.06529297 13.32637695 -19.68652344 12.70166016 C-21 11 -21 11 -21 8 C-19.02 8 -17.04 8 -15 8 C-14.34 6.68 -13.68 5.36 -13 4 C-11.02 4.66 -9.04 5.32 -7 6 C-6.67 4.68 -6.34 3.36 -6 2 C-3.525 2.495 -3.525 2.495 -1 3 C-0.67 2.01 -0.34 1.02 0 0 Z " fill="#D6BEB6" transform="translate(280,280)"/>
<path d="M0 0 C0.99 0 1.98 0 3 0 C3.99 3.96 4.98 7.92 6 12 C11.94 13.485 11.94 13.485 18 15 C18 16.32 18 17.64 18 19 C14.04 19.99 10.08 20.98 6 22 C5.01 25.63 4.02 29.26 3 33 C1.68 33 0.36 33 -1 33 C-1.66 29.04 -2.32 25.08 -3 21 C-8.94 20.01 -8.94 20.01 -15 19 C-15 17.68 -15 16.36 -15 15 C-11.04 14.34 -7.08 13.68 -3 13 C-2.690625 11.040625 -2.38125 9.08125 -2.0625 7.0625 C-1.125 1.125 -1.125 1.125 0 0 Z M1 14 C0.34 15.32 -0.32 16.64 -1 18 C0.485 18.99 0.485 18.99 2 20 C2.66 18.68 3.32 17.36 4 16 C3.01 15.34 2.02 14.68 1 14 Z " fill="#010101" transform="translate(217,247)"/>
<path d="M0 0 C0.99 0 1.98 0 3 0 C3.99 3.96 4.98 7.92 6 12 C11.94 13.485 11.94 13.485 18 15 C18 16.32 18 17.64 18 19 C16.84371094 19.14695313 16.84371094 19.14695313 15.6640625 19.296875 C14.66117187 19.44640625 13.65828125 19.5959375 12.625 19.75 C11.62726563 19.88921875 10.62953125 20.0284375 9.6015625 20.171875 C6.90961461 20.74151868 6.90961461 20.74151868 5.7109375 22.81640625 C5.02168809 24.93338658 4.45775563 27.00907364 4 29.1875 C3.67 30.445625 3.34 31.70375 3 33 C2.01 33.495 2.01 33.495 1 34 C0.34 33.67 -0.32 33.34 -1 33 C-1.91739307 29.37006816 -2.40455491 25.70026589 -3 22 C-6.96 21.01 -10.92 20.02 -15 19 C-15 17.68 -15 16.36 -15 15 C-11.04 14.34 -7.08 13.68 -3 13 C-2.690625 11.040625 -2.38125 9.08125 -2.0625 7.0625 C-1.125 1.125 -1.125 1.125 0 0 Z M1 13 C-0.485 14.98 -0.485 14.98 -2 17 C-0.68 17.99 0.64 18.98 2 20 C2.66 18.68 3.32 17.36 4 16 C3.01 15.01 2.02 14.02 1 13 Z " fill="#010101" transform="translate(276,139)"/>
<path d="M0 0 C4.03077428 4.99600367 6.28426615 10.86388459 8.875 16.6875 C9.1566803 17.31726746 9.4383606 17.94703491 9.72857666 18.59588623 C16.15305767 32.99200867 21.95694334 47.62368608 27.59765625 62.34179688 C28.48128798 64.64686962 29.36877204 66.95047283 30.26171875 69.25195312 C31.31028209 71.9556719 32.3461444 74.66373227 33.375 77.375 C33.66745605 78.1292627 33.95991211 78.88352539 34.26123047 79.66064453 C36.11637476 84.65087572 36.11637476 84.65087572 35 88 C23.19525164 62.5658373 12.43358446 36.77103708 2.625 10.5 C2.20456421 9.37996582 2.20456421 9.37996582 1.77563477 8.23730469 C0.71949505 5.34298478 0 3.1081065 0 0 Z " fill="#220A02" transform="translate(220,180)"/>
<path d="M0 0 C2.87878514 2.49100237 4.16563557 5.13030605 5.71484375 8.58203125 C6.23022705 9.72663818 6.74561035 10.87124512 7.27661133 12.05053711 C7.83092683 13.30422167 8.38453744 14.5582181 8.9375 15.8125 C9.22112396 16.45059601 9.50474792 17.08869202 9.79696655 17.74612427 C16.27637593 32.33379172 22.25872527 47.10753158 28 62 C28.433125 63.12341797 28.86625 64.24683594 29.3125 65.40429688 C30.49419264 68.49331529 31.65841216 71.58807569 32.8125 74.6875 C33.15643799 75.5962085 33.50037598 76.50491699 33.85473633 77.44116211 C34.15661865 78.2688208 34.45850098 79.09647949 34.76953125 79.94921875 C35.03354736 80.66424561 35.29756348 81.37927246 35.56958008 82.1159668 C36 84 36 84 35 87 C0 13.64244186 0 13.64244186 0 0 Z " fill="#240A03" transform="translate(230,175)"/>
<path d="M0 0 C2.61047801 1.305239 2.68066423 2.35826574 3.625 5.0625 C3.88539063 5.79597656 4.14578125 6.52945312 4.4140625 7.28515625 C4.60742188 7.85105469 4.80078125 8.41695313 5 9 C7.31 9.33 9.62 9.66 12 10 C12.33 8.68 12.66 7.36 13 6 C15.97 6.495 15.97 6.495 19 7 C19.66 5.68 20.32 4.36 21 3 C21.61875 3.20625 22.2375 3.4125 22.875 3.625 C23.926875 3.810625 23.926875 3.810625 25 4 C25.66 3.34 26.32 2.68 27 2 C27 3.32 27 4.64 27 6 C26.01 6.66 25.02 7.32 24 8 C22.80767387 10.05003955 22.80767387 10.05003955 22 12 C19.03 11.505 19.03 11.505 16 11 C15.34 12.32 14.68 13.64 14 15 C10.05565582 14.21113116 6.5568288 12.87541882 3 11 C1.125 7.9375 1.125 7.9375 0 5 C-0.33 4.34 -0.66 3.68 -1 3 C-0.67 2.01 -0.34 1.02 0 0 Z " fill="#0F0402" transform="translate(251,274)"/>
<path d="M0 0 C0.99 0 1.98 0 3 0 C3.33 2.31 3.66 4.62 4 7 C5.32 7 6.64 7 8 7 C8.33 5.02 8.66 3.04 9 1 C10.8709949 3.80649235 12.23017952 6.49960473 13.625 9.5625 C14.29402344 11.01849609 14.29402344 11.01849609 14.9765625 12.50390625 C16 15 16 15 16 17 C15.34 17 14.68 17 14 17 C14 16.01 14 15.02 14 14 C13.01 13.67 12.02 13.34 11 13 C11 11.68 11 10.36 11 9 C10.01 9 9.02 9 8 9 C8.185625 9.53625 8.37125 10.0725 8.5625 10.625 C9.11419324 13.61990614 8.60597444 16.03745829 8 19 C6.39877443 16.59816164 5.46414439 14.84821846 4.4921875 12.20703125 C4.22792969 11.49482422 3.96367187 10.78261719 3.69140625 10.04882812 C3.42199219 9.31083984 3.15257812 8.57285156 2.875 7.8125 C2.59785156 7.06291016 2.32070312 6.31332031 2.03515625 5.54101562 C1.35329598 3.69529041 0.67618441 1.84781213 0 0 Z " fill="#D88B4C" transform="translate(241,227)"/>
<path d="M0 0 C0.28875 1.134375 0.5775 2.26875 0.875 3.4375 C1.24625 4.613125 1.6175 5.78875 2 7 C2.66 7.33 3.32 7.66 4 8 C4 9.65 4 11.3 4 13 C2 11 2 11 -1 1 C-11.89 5.455 -11.89 5.455 -23 10 C-23.33 9.34 -23.66 8.68 -24 8 C-22.68 7.34 -21.36 6.68 -20 6 C-20 5.34 -20 4.68 -20 4 C-7.69931663 -1.92482916 -7.69931663 -1.92482916 0 0 Z " fill="#1B0C06" transform="translate(233,157)"/>
<path d="M0 0 C0.66 0 1.32 0 2 0 C2.66 2.97 3.32 5.94 4 9 C4.66 9 5.32 9 6 9 C6.28875 10.134375 6.5775 11.26875 6.875 12.4375 C7.24625 13.613125 7.6175 14.78875 8 16 C8.66 16.33 9.32 16.66 10 17 C9.649375 15.9275 9.29875 14.855 8.9375 13.75 C8 10 8 10 9 6 C10.98 11.28 12.96 16.56 15 22 C14.34 22.33 13.68 22.66 13 23 C12.67 22.01 12.34 21.02 12 20 C11.01 20 10.02 20 9 20 C9.66 22.97 10.32 25.94 11 29 C8.64946704 26.64946704 8.00261624 24.76608582 6.8359375 21.66015625 C6.43632812 20.59732422 6.03671875 19.53449219 5.625 18.43945312 C5.00625 16.76786133 5.00625 16.76786133 4.375 15.0625 C3.95476562 13.95197266 3.53453125 12.84144531 3.1015625 11.69726562 C0 3.38447392 0 3.38447392 0 0 Z " fill="#D48A4D" transform="translate(253,224)"/>
<path d="M0 0 C2.015625 1.14453125 2.015625 1.14453125 4 3 C4.171875 5.69921875 4.171875 5.69921875 3.75 8.6875 C3.62109375 9.68136719 3.4921875 10.67523438 3.359375 11.69921875 C3.24078125 12.45847656 3.1221875 13.21773437 3 14 C3.66 14 4.32 14 5 14 C5.33 15.98 5.66 17.96 6 20 C5.34 19.67 4.68 19.34 4 19 C4 17.68 4 16.36 4 15 C3.34 15 2.68 15 2 15 C1.67 15.66 1.34 16.32 1 17 C1 15.35 1 13.7 1 12 C0.01 12 -0.98 12 -2 12 C-2.24954005 10.56589632 -2.47392642 9.12739928 -2.6875 7.6875 C-2.81511719 6.88699219 -2.94273437 6.08648437 -3.07421875 5.26171875 C-3 3 -3 3 -1.51953125 1.20703125 C-1.01808594 0.80871094 -0.51664063 0.41039062 0 0 Z " fill="#EC8E41" transform="translate(236,198)"/>
<path d="M0 0 C0.66 0 1.32 0 2 0 C3.65 4.29 5.3 8.58 7 13 C6.01 13.495 6.01 13.495 5 14 C4.01 15.485 4.01 15.485 3 17 C1.68 16.01 0.36 15.02 -1 14 C-0.34 14 0.32 14 1 14 C0.649375 13.175 0.29875 12.35 -0.0625 11.5 C-1.22335775 7.16613108 -0.75705178 4.39090031 0 0 Z " fill="#DD8C4A" transform="translate(273,262)"/>
<path d="M0 0 C0.66 0.33 1.32 0.66 2 1 C2 1.99 2 2.98 2 4 C-4.62615673 7.09866202 -9.67372525 8.47266289 -17 8 C-17.33 6.35 -17.66 4.7 -18 3 C-17.01 3.99 -16.02 4.98 -15 6 C-13.94039062 5.55527344 -12.88078125 5.11054688 -11.7890625 4.65234375 C-10.40120899 4.08032304 -9.01317892 3.50873056 -7.625 2.9375 C-6.57699219 2.49567383 -6.57699219 2.49567383 -5.5078125 2.04492188 C-3.69495092 1.30408902 -1.84876857 0.64603036 0 0 Z " fill="#20050A" transform="translate(215,140)"/>
<path d="M0 0 C2.89908098 4.34862147 4.39990811 9.10830002 6.1875 14 C6.56841797 15.010625 6.94933594 16.02125 7.34179688 17.0625 C7.69693359 18.031875 8.05207031 19.00125 8.41796875 20 C8.74563232 20.886875 9.0732959 21.77375 9.41088867 22.6875 C10 25 10 25 9 28 C7.16055374 24.04447897 5.32948447 20.08513715 3.5 16.125 C2.71302734 14.43310547 2.71302734 14.43310547 1.91015625 12.70703125 C1.16572266 11.09248047 1.16572266 11.09248047 0.40625 9.4453125 C-0.05458984 8.45031738 -0.51542969 7.45532227 -0.99023438 6.43017578 C-2 4 -2 4 -2 2 C-1.34 2 -0.68 2 0 2 C0 1.34 0 0.68 0 0 Z " fill="#2F1105" transform="translate(256,234)"/>
<path d="M0 0 C0.33 1.32 0.66 2.64 1 4 C0.01 4.66 -0.98 5.32 -2 6 C-3.19232613 8.05003955 -3.19232613 8.05003955 -4 10 C-6.31 9.67 -8.62 9.34 -11 9 C-11.66 7.35 -12.32 5.7 -13 4 C-10.03 4.495 -10.03 4.495 -7 5 C-6.34 3.68 -5.68 2.36 -5 1 C-3.68 1.33 -2.36 1.66 -1 2 C-0.67 1.34 -0.34 0.68 0 0 Z " fill="#181310" transform="translate(277,276)"/>
<path d="M0 0 C3 1 3 1 4.38671875 3.3984375 C4.81597656 4.38070312 5.24523437 5.36296875 5.6875 6.375 C6.34298828 7.84066406 6.34298828 7.84066406 7.01171875 9.3359375 C8 12 8 12 8 15 C7.01 15.33 6.02 15.66 5 16 C4.15787744 14.08717875 3.32661136 12.16957527 2.5 10.25 C2.0359375 9.18265625 1.571875 8.1153125 1.09375 7.015625 C0 4 0 4 0 0 Z " fill="#200902" transform="translate(231,208)"/>
<path d="M0 0 C0.66 0.33 1.32 0.66 2 1 C1.319375 1.309375 0.63875 1.61875 -0.0625 1.9375 C-2.20468701 3.7666598 -2.20468701 3.7666598 -2.078125 5.95703125 C-1.80366458 8.32627045 -1.4266261 10.65355646 -1 13 C-0.80770039 14.35349343 -0.61962505 15.70759998 -0.4375 17.0625 C-0.293125 18.031875 -0.14875 19.00125 0 20 C-3.47355465 16.84843215 -4.87383971 13.50464114 -6 9 C-6 5.6875 -6 5.6875 -5 3 C-2.5625 1.0625 -2.5625 1.0625 0 0 Z " fill="#030101" transform="translate(195,125)"/>
<path d="M0 0 C2 3 2 3 4 6 C4.33 6 4.66 6 5 6 C5.66 9.96 6.32 13.92 7 18 C5.68 17.34 4.36 16.68 3 16 C3 14.02 3 12.04 3 10 C2.34 10 1.68 10 1 10 C-0.83691257 6.21812119 -1.15837626 4.05431692 0 0 Z " fill="#EE8F42" transform="translate(256,223)"/>
<path d="M0 0 C0.66 0 1.32 0 2 0 C3.32 3.3 4.64 6.6 6 10 C6.66 9.01 7.32 8.02 8 7 C8.67154933 8.28913487 9.33708859 9.58140204 10 10.875 C10.37125 11.59429687 10.7425 12.31359375 11.125 13.0546875 C12 15 12 15 12 17 C11.34 17 10.68 17 10 17 C10 16.34 10 15.68 10 15 C9.34 15 8.68 15 8 15 C7.67 16.32 7.34 17.64 7 19 C5.83061634 16.02189259 4.66495037 13.04234409 3.5 10.0625 C2.99919922 8.78729492 2.99919922 8.78729492 2.48828125 7.48632812 C2.17246094 6.67744141 1.85664063 5.86855469 1.53125 5.03515625 C1.23798828 4.2862915 0.94472656 3.53742676 0.64257812 2.76586914 C0 1 0 1 0 0 Z " fill="#D38B50" transform="translate(235,233)"/>
<path d="M0 0 C0.99 0.33 1.98 0.66 3 1 C3 1.99 3 2.98 3 4 C3.66 4 4.32 4 5 4 C5 5.65 5 7.3 5 9 C5.66 9 6.32 9 7 9 C6.67 9.99 6.34 10.98 6 12 C4.35 12.33 2.7 12.66 1 13 C0.67 8.71 0.34 4.42 0 0 Z " fill="#F28E3F" transform="translate(228,183)"/>
<path d="M0 0 C1.98 0 3.96 0 6 0 C2.97342984 3.02657016 -1.01350944 4.15766284 -4.9453125 5.70117188 C-8.42122537 7.1228057 -9.86021094 7.79031642 -12 11 C-12.375 8.8125 -12.375 8.8125 -12 6 C-9.375 3.125 -9.375 3.125 -6 1 C-2.625 1.1875 -2.625 1.1875 0 2 C0 1.34 0 0.68 0 0 Z " fill="#1A0105" transform="translate(204,123)"/>
<path d="M0 0 C3.43534753 3.1626047 4.90273918 6.65594751 6.75 10.875 C7.07871094 11.58269531 7.40742188 12.29039062 7.74609375 13.01953125 C9.51965386 17.03810416 10.53563397 19.64903708 9 24 C7.29487259 21.44230888 6.31936855 19.46000689 5.2734375 16.62109375 C4.9640625 15.78255859 4.6546875 14.94402344 4.3359375 14.08007812 C4.01882812 13.20802734 3.70171875 12.33597656 3.375 11.4375 C3.05015625 10.56158203 2.7253125 9.68566406 2.390625 8.78320312 C0 2.25920759 0 2.25920759 0 0 Z " fill="#341103" transform="translate(230,175)"/>
<path d="M0 0 C0.99 0.66 1.98 1.32 3 2 C2.34 3.32 1.68 4.64 1 6 C-0.98 5.34 -2.96 4.68 -5 4 C-5.33 5.65 -5.66 7.3 -6 9 C-7.98 8.34 -9.96 7.68 -12 7 C-12.33 7.66 -12.66 8.32 -13 9 C-13.33 7.68 -13.66 6.36 -14 5 C-11.36 5.33 -8.72 5.66 -6 6 C-6 4.68 -6 3.36 -6 2 C-4.02 2 -2.04 2 0 2 C0 1.34 0 0.68 0 0 Z " fill="#CF8448" transform="translate(269,276)"/>
<path d="M0 0 C2.73544525 2.38172388 3.92545358 4.70665291 5.25 8.0625 C5.60578125 8.94035156 5.9615625 9.81820312 6.328125 10.72265625 C7 13 7 13 6 15 C5.34 14.67 4.68 14.34 4 14 C4 13.01 4 12.02 4 11 C3.34 11 2.68 11 2 11 C2 10.34 2 9.68 2 9 C1.34 9 0.68 9 0 9 C-1.10844919 5.67465243 -0.84454356 3.37817425 0 0 Z " fill="#D68B4A" transform="translate(239,203)"/>
<path d="M0 0 C2.45205923 3.67808884 4.0012885 7.49058645 5.6875 11.5625 C6.02072266 12.34302734 6.35394531 13.12355469 6.69726562 13.92773438 C7.16229492 15.04825195 7.16229492 15.04825195 7.63671875 16.19140625 C7.92248779 16.87404541 8.20825684 17.55668457 8.50268555 18.26000977 C9 20 9 20 8 22 C5 16.25 5 16.25 5 14 C4.34 14 3.68 14 3 14 C2.67 12.02 2.34 10.04 2 8 C1.34 8 0.68 8 0 8 C0 5.36 0 2.72 0 0 Z " fill="#D18A4F" transform="translate(244,189)"/>
<path d="M0 0 C0.66 0.33 1.32 0.66 2 1 C2.33333333 2.66666667 2.66666667 4.33333333 3 6 C3.66 6.33 4.32 6.66 5 7 C5 8.32 5 9.64 5 11 C5.66 11 6.32 11 7 11 C7 13.31 7 15.62 7 18 C3.60344162 16.30172081 3.09337458 12.35069769 1.875 8.9375 C1.59785156 8.17888672 1.32070312 7.42027344 1.03515625 6.63867188 C0.35037777 4.76143432 -0.32563763 2.88100446 -1 1 C-0.67 0.67 -0.34 0.34 0 0 Z " fill="#030103" transform="translate(212,185)"/>
<path d="M0 0 C0.99 0 1.98 0 3 0 C3.18175781 0.84884766 3.18175781 0.84884766 3.3671875 1.71484375 C3.53476563 2.44832031 3.70234375 3.18179688 3.875 3.9375 C4.03742188 4.66839844 4.19984375 5.39929688 4.3671875 6.15234375 C4.82961523 8.20700294 4.82961523 8.20700294 7 9 C7 10.65 7 12.3 7 14 C6.01 14.495 6.01 14.495 5 15 C4.16013916 13.06532058 3.32831973 11.12714871 2.5 9.1875 C2.0359375 8.10855469 1.571875 7.02960938 1.09375 5.91796875 C0 3 0 3 0 0 Z " fill="#050202" transform="translate(232,235)"/>
<path d="M0 0 C0.99 0 1.98 0 3 0 C3.33 0.99 3.66 1.98 4 3 C4.66 3 5.32 3 6 3 C7.3271261 6.9813783 7.06915913 10.85045227 7 15 C4.39473112 12.39473112 3.65865776 9.82060766 2.375 6.375 C1.92898437 5.18648437 1.48296875 3.99796875 1.0234375 2.7734375 C0.68570313 1.85820312 0.34796875 0.94296875 0 0 Z " fill="#DD8D4C" transform="translate(234,210)"/>
<path d="M0 0 C2.97381921 3.49334185 4.58440784 7.4044218 6.25 11.625 C6.53101563 12.305625 6.81203125 12.98625 7.1015625 13.6875 C7.7987745 15.43398154 8.40658567 17.21557803 9 19 C8.67 19.66 8.34 20.32 8 21 C7.67 20.01 7.34 19.02 7 18 C6.01 17.67 5.02 17.34 4 17 C3.33984375 15.07421875 3.33984375 15.07421875 2.9375 12.6875 C2.50309881 10.1845217 2.11395209 8.21991491 0.94140625 5.95703125 C0 4 0 4 0 0 Z " fill="#CF874C" transform="translate(235,168)"/>
<path d="M0 0 C2.17260367 3.2589055 3.35021087 6.32149695 4.6875 10 C5.14511719 11.2375 5.60273438 12.475 6.07421875 13.75 C7 17 7 17 6 20 C5.67 18.35 5.34 16.7 5 15 C4.34 15 3.68 15 3 15 C3 13.35 3 11.7 3 10 C2.34 10 1.68 10 1 10 C1 8.35 1 6.7 1 5 C0.34 5 -0.32 5 -1 5 C-0.67 3.35 -0.34 1.7 0 0 Z " fill="#D0894D" transform="translate(232,182)"/>
<path d="M0 0 C3.0081819 3.0081819 3.84627698 6.02001578 4.5 10.1875 C4.74585812 13.12747383 4.74585812 13.12747383 7 15 C5.02 15.99 5.02 15.99 3 17 C0.74566386 11.43930418 0.40038172 5.9214349 0 0 Z " fill="#150205" transform="translate(193,134)"/>
<path d="M0 0 C1.32 0 2.64 0 4 0 C6.03219488 3.40351338 6.36891039 6.3232927 6.625 10.25 C6.69976562 11.32765625 6.77453125 12.4053125 6.8515625 13.515625 C6.92503906 14.74539063 6.92503906 14.74539063 7 16 C5.24900461 13.37350692 4.30690675 11.38191413 3.3125 8.4375 C3.04050781 7.65246094 2.76851563 6.86742187 2.48828125 6.05859375 C2 4 2 4 3 2 C2.01 1.67 1.02 1.34 0 1 C0 0.67 0 0.34 0 0 Z " fill="#240E05" transform="translate(270,251)"/>
<path d="M0 0 C3.66666667 0 7.33333333 0 11 0 C11 1.65 11 3.3 11 5 C11.66 5 12.32 5 13 5 C13 6.32 13 7.64 13 9 C11.68 8.67 10.36 8.34 9 8 C9.33 6.68 9.66 5.36 10 4 C9.34 4 8.68 4 8 4 C7.67 3.34 7.34 2.68 7 2 C4.69 2 2.38 2 0 2 C0 1.34 0 0.68 0 0 Z " fill="#28050C" transform="translate(210,121)"/>
<path d="M0 0 C1.89453748 2.84180622 3.00192814 5.31564815 4.1875 8.5 C4.55230469 9.4590625 4.91710937 10.418125 5.29296875 11.40625 C6 14 6 14 5 17 C2.69 11.72 0.38 6.44 -2 1 C-1.34 0.67 -0.68 0.34 0 0 Z " fill="#542209" transform="translate(250,251)"/>
<path d="M0 0 C1.32 0.33 2.64 0.66 4 1 C4.33 2.65 4.66 4.3 5 6 C6.32 5.67 7.64 5.34 9 5 C8.34 7.31 7.68 9.62 7 12 C5 9 5 9 4.0625 7 C3.08720446 4.9286509 3.08720446 4.9286509 1.375 3.375 C0.92125 2.92125 0.4675 2.4675 0 2 C0 1.34 0 0.68 0 0 Z " fill="#D98642" transform="translate(228,171)"/>
<path d="M0 0 C1.89453748 2.84180622 3.00192814 5.31564815 4.1875 8.5 C4.55230469 9.4590625 4.91710937 10.418125 5.29296875 11.40625 C6 14 6 14 5 17 C3.96486753 14.9237343 2.94733789 12.83868521 1.9375 10.75 C1.36902344 9.58984375 0.80054688 8.4296875 0.21484375 7.234375 C-0.96485975 4.09355667 -1.30230734 3.00646952 0 0 Z " fill="#511F07" transform="translate(260,245)"/>
<path d="M0 0 C0.99 2.64 1.98 5.28 3 8 C2.34 8 1.68 8 1 8 C0.67 6.35 0.34 4.7 0 3 C-0.9075 3.37125 -1.815 3.7425 -2.75 4.125 C-6 5 -6 5 -8.375 4.125 C-8.91125 3.75375 -9.4475 3.3825 -10 3 C-8.70990357 2.49596232 -7.41786211 1.99690074 -6.125 1.5 C-5.04605469 1.08234375 -5.04605469 1.08234375 -3.9453125 0.65625 C-2 0 -2 0 0 0 Z " fill="#CD874D" transform="translate(232,158)"/>
<path d="M0 0 C0.99 0.33 1.98 0.66 3 1 C3 2.65 3 4.3 3 6 C3.66 6 4.32 6 5 6 C5.33 7.65 5.66 9.3 6 11 C5.01 11 4.02 11 3 11 C2.01 7.37 1.02 3.74 0 0 Z " fill="#F18F3C" transform="translate(241,191)"/>
<path d="M0 0 C0 0.99 0 1.98 0 3 C-0.66 2.34 -1.32 1.68 -2 1 C-1.34 0.67 -0.68 0.34 0 0 Z M-6 2 C-3.525 2.495 -3.525 2.495 -1 3 C-1.33 4.98 -1.66 6.96 -2 9 C-2.99 9 -3.98 9 -5 9 C-5.33 6.69 -5.66 4.38 -6 2 Z " fill="#F02C68" transform="translate(201,130)"/>
<path d="M0 0 C3 1 3 1 4.1875 3.375 C5 6 5 6 5 9 C5.66 9 6.32 9 7 9 C7 10.98 7 12.96 7 15 C4.44772349 11.92849245 3.11223296 9.01474376 1.8125 5.25 C1.46832031 4.26515625 1.12414062 3.2803125 0.76953125 2.265625 C0.51558594 1.51796875 0.26164063 0.7703125 0 0 Z " fill="#D28B4F" transform="translate(244,204)"/>
<path d="M0 0 C-4.29 1.65 -8.58 3.3 -13 5 C-12.67 3.68 -12.34 2.36 -12 1 C-8.08595092 -0.95702454 -4.11979807 -1.37326602 0 0 Z " fill="#CC3260" transform="translate(217,140)"/>
<path d="M0 0 C0.66 0 1.32 0 2 0 C2 2.64 2 5.28 2 8 C1.34 7.34 0.68 6.68 0 6 C-0.99 6 -1.98 6 -3 6 C-3.66 4.68 -4.32 3.36 -5 2 C-3.68 2.33 -2.36 2.66 -1 3 C-0.67 2.01 -0.34 1.02 0 0 Z " fill="#B6A6A0" transform="translate(280,280)"/>
<path d="M0 0 C1.9375 0.6875 1.9375 0.6875 4 2 C4.75 4.625 4.75 4.625 5 7 C4.01 7.33 3.02 7.66 2 8 C0.74335022 5.09399739 0 3.20395416 0 0 Z " fill="#180601" transform="translate(245,213)"/>
<path d="M0 0 C2.55934601 1.279673 2.6989233 2.24201036 3.6875 4.875 C3.95949219 5.57367188 4.23148438 6.27234375 4.51171875 6.9921875 C5 9 5 9 4 12 C3.13353333 10.56988027 2.28218171 9.13059381 1.4375 7.6875 C0.72400391 6.48673828 0.72400391 6.48673828 -0.00390625 5.26171875 C-1 3 -1 3 0 0 Z " fill="#281106" transform="translate(251,274)"/>
<path d="M0 0 C2.83374881 3.20336822 3.5205537 5.78087253 4 10 C3.01 10.33 2.02 10.66 1 11 C1.33 9.02 1.66 7.04 2 5 C1.01 5 0.02 5 -1 5 C-0.67 3.35 -0.34 1.7 0 0 Z " fill="#EF8F41" transform="translate(218,182)"/>
<path d="M0 0 C2.475 0.495 2.475 0.495 5 1 C5.33 2.65 5.66 4.3 6 6 C3.5625 5.25 3.5625 5.25 1 4 C0.1875 1.875 0.1875 1.875 0 0 Z " fill="#180B08" transform="translate(264,280)"/>
<path d="M0 0 C1.32 0.99 2.64 1.98 4 3 C3.34 5.31 2.68 7.62 2 10 C1.67 10 1.34 10 1 10 C1 8.02 1 6.04 1 4 C0.34 4 -0.32 4 -1 4 C-0.67 2.68 -0.34 1.36 0 0 Z " fill="#E98D3E" transform="translate(250,209)"/>
<path d="M0 0 C2.34914492 2.34914492 2.73140357 3.95679446 3.625 7.125 C3.88539063 8.03507813 4.14578125 8.94515625 4.4140625 9.8828125 C4.70410156 10.93082031 4.70410156 10.93082031 5 12 C4.34 12 3.68 12 3 12 C3 10.68 3 9.36 3 8 C2.01 7.67 1.02 7.34 0 7 C0 4.69 0 2.38 0 0 Z " fill="#240C03" transform="translate(214,184)"/>
<path d="M0 0 C0.66 0 1.32 0 2 0 C2.33 2.64 2.66 5.28 3 8 C1.68 7.67 0.36 7.34 -1 7 C-0.67 4.69 -0.34 2.38 0 0 Z " fill="#EB9147" transform="translate(226,183)"/>
<path d="M0 0 C1.98 0 3.96 0 6 0 C3.77174356 2.22825644 2.34238372 2.69239369 -0.625 3.625 C-1.44226563 3.88539062 -2.25953125 4.14578125 -3.1015625 4.4140625 C-3.72804687 4.60742188 -4.35453125 4.80078125 -5 5 C-5 4.01 -5 3.02 -5 2 C-3.35 2 -1.7 2 0 2 C0 1.34 0 0.68 0 0 Z " fill="#290209" transform="translate(204,123)"/>
<path d="M0 0 C0.66 0 1.32 0 2 0 C2 0.66 2 1.32 2 2 C2.66 2 3.32 2 4 2 C4.33 3.65 4.66 5.3 5 7 C4.01 7.33 3.02 7.66 2 8 C2 6.68 2 5.36 2 4 C1.34 4 0.68 4 0 4 C0 2.68 0 1.36 0 0 Z " fill="#EF8F41" transform="translate(243,248)"/>
<path d="M0 0 C0.66 0 1.32 0 2 0 C2.33 1.32 2.66 2.64 3 4 C3.99 4 4.98 4 6 4 C5.67 5.65 5.34 7.3 5 9 C2.38952199 7.694761 2.31933577 6.64173426 1.375 3.9375 C1.11460937 3.20402344 0.85421875 2.47054687 0.5859375 1.71484375 C0.39257812 1.14894531 0.19921875 0.58304688 0 0 Z " fill="#020104" transform="translate(224,218)"/>
<path d="M0 0 C0.99 0 1.98 0 3 0 C3.66 3.63 4.32 7.26 5 11 C2.77174356 8.77174356 2.30760631 7.34238372 1.375 4.375 C1.11460937 3.55773437 0.85421875 2.74046875 0.5859375 1.8984375 C0.39257812 1.27195313 0.19921875 0.64546875 0 0 Z " fill="#1E0A03" transform="translate(256,217)"/>
<path d="M0 0 C0.66 1.32 1.32 2.64 2 4 C2.66 4 3.32 4 4 4 C4 4.66 4 5.32 4 6 C3.01 6 2.02 6 1 6 C0.67 5.34 0.34 4.68 0 4 C-2.52733235 3.34444881 -2.52733235 3.34444881 -5 3 C-3 1 -3 1 0 0 Z " fill="#D78949" transform="translate(220,162)"/>
<path d="M0 0 C0.33 1.32 0.66 2.64 1 4 C-1.31 4.33 -3.62 4.66 -6 5 C-5.67 3.68 -5.34 2.36 -5 1 C-3.02 1.495 -3.02 1.495 -1 2 C-0.67 1.34 -0.34 0.68 0 0 Z " fill="#2D1005" transform="translate(277,276)"/>
<path d="M0 0 C2.64465038 3.1254959 3.84414715 6.08788267 5 10 C4.01 10.495 4.01 10.495 3 11 C2.49384702 9.73160474 1.99530901 8.46016898 1.5 7.1875 C1.2215625 6.47980469 0.943125 5.77210938 0.65625 5.04296875 C0 3 0 3 0 0 Z " fill="#522009" transform="translate(220,180)"/>
<path d="M0 0 C2.97 0.33 5.94 0.66 9 1 C8.67 1.99 8.34 2.98 8 4 C6.02 3.34 4.04 2.68 2 2 C1.67 2.66 1.34 3.32 1 4 C0.67 2.68 0.34 1.36 0 0 Z " fill="#B67C4C" transform="translate(255,281)"/>
<path d="M0 0 C1.74627478 2.61941217 2.38722388 4.03824877 3 7 C2.01 7.33 1.02 7.66 0 8 C-0.66 6.02 -1.32 4.04 -2 2 C-1.34 2 -0.68 2 0 2 C0 1.34 0 0.68 0 0 Z " fill="#2F1005" transform="translate(245,238)"/>
<path d="M0 0 C3 3.75 3 3.75 3 6 C2.34 6 1.68 6 1 6 C0.67 6.66 0.34 7.32 0 8 C-0.66 6.02 -1.32 4.04 -2 2 C-1.34 2 -0.68 2 0 2 C0 1.34 0 0.68 0 0 Z " fill="#2B1005" transform="translate(230,202)"/>
<path d="M0 0 C1.32 0.99 2.64 1.98 4 3 C3.67 4.98 3.34 6.96 3 9 C0.87491756 5.81237635 0.4979837 3.73487777 0 0 Z " fill="#E78C43" transform="translate(239,237)"/>
<path d="M0 0 C2.475 0.99 2.475 0.99 5 2 C4.34 3.65 3.68 5.3 3 7 C1.79371992 4.66785852 0.8345262 2.50357861 0 0 Z " fill="#E38C42" transform="translate(225,205)"/>
</svg>
